<?xml version="1.0" encoding="UTF-8"?>
<svg id="Layer_1" data-name="Layer 1" xmlns="http://www.w3.org/2000/svg" viewBox="0 0 500 500">
  <path d="M64.14,187.29l-37.96,80.42,9.31-.13,11.35-24.58,38.25.29,11.35,24.29h9.16l-41.46-80.29ZM50.13,235.58l14.67-31.2,16.2,31.2h-30.87Z" fill="#014208" isolation="isolate"/>
  <polygon points="8 267.59 17.89 267.59 59.2 180.17 50.13 180.17 8 267.59" fill="#f51e2d" isolation="isolate"/>
  <polygon points="118.55 219.99 118.55 264.24 147.78 264.24 147.05 255.71 127.42 255.71 127.56 220.61 118.55 219.99" fill="#004101" isolation="isolate"/>
  <polygon points="158.95 228.93 158.95 263.41 168.22 263.41 168.22 228.93 181.53 228.93 181.53 220.42 145.96 220.42 145.96 229.15 158.95 228.93" fill="#033d03" isolation="isolate"/>
  <path d="M205.14,220.42h-11.23l-15.87,43.46h9.96l2.54-8.17h17.97l2.98,8.17h9.38l-15.73-43.46ZM193.2,247.58l6.25-16.88,6.29,16.88h-12.54Z" fill="#033d03" isolation="isolate"/>
  <path d="M264.05,220.78h-11.23l-15.88,43.46h9.97l2.54-8.17h17.97l2.98,8.17h9.38l-15.73-43.46ZM252.11,247.95l6.25-16.88,6.29,16.88h-12.54Z" fill="#e02222"/>
  <path d="M301.6,253.04h7.82c-2.23,6.53-8.22,11.2-15.25,11.2-8.94,0-16.19-7.55-16.19-16.86s7.25-16.85,16.19-16.85c7.31,0,13.49,5.04,15.5,11.98h-7.84c-1.61-2.59-4.42-4.31-7.61-4.31-5,0-9.06,4.21-9.06,9.4s4.06,9.4,9.06,9.4c3.05,0,5.74-1.56,7.38-3.96Z" fill="#e02222"/>
  <path d="M337.94,238.58h0c-2.11-4.89-6.93-8.05-12.25-8.05h-2.01c-3.92,0-7.75,1.56-10.3,4.54-1.35,1.56-2.39,3.5-2.41,5.75h7.24c.6,0,1.17-.26,1.58-.71,1.37-1.52,5.06-4.6,9.56-.37.21.2.34.48.36.77l.21,3.73c.01.2-.15.36-.35.35l-6.03-.15c-4.1.19-8.07,1.76-10.99,4.66-3.04,3.02-4.9,7.36.57,12.32,2.06,1.87,4.78,2.82,7.55,2.82h1.17c2.21,0,4.36-.73,6.1-2.09,1.16-.9,2.27-2.05,2.72-3.33v5.13l7.91-.11v-22.25c0-1.03-.21-2.06-.62-3.01ZM330.09,251.46c0,1.07-.17,2.14-.59,3.12-.61,1.43-1.82,3.07-4.14,3.1h-3.6c-.74,0-1.46-.23-2.08-.64-1.54-1.02-3.77-3.24-.65-6.29.68-.67,1.61-1.04,2.56-1.04h8.5v1.75Z" fill="#e02222"/>
  <path d="M372.38,220.77h-8.29v14.95s-2.47-5.26-11.49-4.67c-9.02.59-12.29,7.83-12.29,11.03l.33,9.54s.98,13.08,10.94,12.61h6.35c.59,0,1.17-.15,1.68-.45,1.51-.88,4.77-2.97,6.33-5.59,0,0,.06,5.54.08,5.56.01.03,7.09.29,7.09.29l-.73-43.27ZM355.62,257.68c-4.75,0-8.6-4.63-8.6-10.34s3.85-10.34,8.6-10.34,8.6,4.63,8.6,10.34-3.85,10.34-8.6,10.34Z" fill="#e02222"/>
  <path d="M406.74,249.66s2.35-14.18-11.89-18.77l-7.14-.32s-11.67,3.27-12,13.36v6.38s.34,11.05,8.56,13.15c.83.21,1.69.27,2.55.27h4.28c4.63,0,9.14-1.77,12.32-5.14,1.37-1.45,1.8-3.07,1.67-4.67l-7.89.05s-.11,3.07-3.93,3.32h-5.29s-4.31-1.74-3.93-7.63h22.69ZM386.42,239.1c.92-.98,2.22-1.5,3.56-1.5h.62c3.37,0,5.87,1.96,7.19,5.06.25.57.34.94.34.94h-14.08c.39-1.99,1.43-3.5,2.37-4.5Z" fill="#e02222"/>
  <path d="M408.95,264.1v-33.53h8.29v5.24s1.89-4.58,6.47-4.87,10.76,1.24,10.76,5.24c0,0,4.58-5.82,9.67-5.6,0,0,11.93-.87,12.29,11.05v22.11h-8.44l.22-22.25s-.8-3.96-5.6-3.87c0,0-4.87.31-5.67,4.16v21.96h-8.65v-22.04s-.44-4.09-4.65-4.09c0,0-5.38-1-5.96,3.73v22.76h-8.73Z" fill="#e02222"/>
  <polygon points="482.4 230.57 474.65 252.82 465.38 230.57 456.44 230.56 469.96 262.64 464.95 276.17 474.11 276.17 492 231.11 482.4 230.57" fill="#e02222"/>
  <path d="M132.05,313.7c.06-.92.11-2.28.11-3.47v-16.24h2.42v8.44h.05c.86-1.5,2.42-2.47,4.58-2.47,3.33,0,5.69,2.78,5.66,6.86,0,4.8-3.03,7.19-6.02,7.19-1.94,0-3.5-.75-4.5-2.53h-.08l-.11,2.22h-2.11ZM134.58,308.31c0,.31.05.61.11.89.47,1.69,1.89,2.86,3.66,2.86,2.55,0,4.08-2.08,4.08-5.16,0-2.69-1.39-5-4-5-1.67,0-3.22,1.14-3.72,3-.06.28-.14.61-.14,1v2.41Z" fill="#033d03"/>
  <path d="M154.4,300.26l2.94,7.94c.31.89.64,1.94.86,2.75h.06c.25-.8.53-1.83.86-2.8l2.67-7.88h2.58l-3.66,9.58c-1.75,4.61-2.94,6.97-4.61,8.41-1.19,1.05-2.39,1.47-3,1.58l-.61-2.05c.61-.19,1.42-.58,2.14-1.19.67-.53,1.5-1.47,2.05-2.72.11-.25.19-.44.19-.58s-.06-.33-.17-.64l-4.97-12.38h2.66Z" fill="#033d03"/>
  <path d="M198.31,296.49c.03.83-.58,1.5-1.55,1.5-.86,0-1.47-.67-1.47-1.5s.64-1.53,1.53-1.53,1.5.67,1.5,1.53ZM195.59,313.7v-13.43h2.44v13.43h-2.44Z" fill="#033d03"/>
  <path d="M207.83,303.9c0-1.39-.03-2.53-.11-3.64h2.14l.11,2.16h.08c.75-1.28,2-2.47,4.22-2.47,1.83,0,3.22,1.11,3.8,2.69h.06c.42-.75.94-1.33,1.5-1.75.8-.61,1.69-.94,2.97-.94,1.78,0,4.41,1.17,4.41,5.83v7.91h-2.39v-7.6c0-2.58-.94-4.14-2.91-4.14-1.39,0-2.47,1.03-2.89,2.22-.11.33-.19.78-.19,1.22v8.3h-2.39v-8.05c0-2.14-.94-3.69-2.8-3.69-1.53,0-2.64,1.22-3.03,2.44-.14.36-.19.78-.19,1.19v8.1h-2.39v-9.8Z" fill="#033d03"/>
  <path d="M236.73,304.65c0-1.72-.06-3.11-.11-4.39h2.19l.11,2.3h.06c1-1.64,2.58-2.61,4.77-2.61,3.25,0,5.69,2.75,5.69,6.83,0,4.83-2.94,7.22-6.11,7.22-1.78,0-3.33-.78-4.14-2.11h-.05v7.3h-2.42v-14.54ZM239.15,308.23c0,.36.05.69.11,1,.44,1.69,1.92,2.86,3.66,2.86,2.58,0,4.08-2.11,4.08-5.19,0-2.69-1.42-5-4-5-1.67,0-3.22,1.19-3.69,3.03-.08.31-.17.67-.17,1v2.3Z" fill="#033d03"/>
  <path d="M258.27,293.99h2.44v19.71h-2.44v-19.71Z" fill="#033d03"/>
  <path d="M278.01,313.7l-.19-1.69h-.08c-.75,1.05-2.19,2-4.11,2-2.72,0-4.11-1.92-4.11-3.86,0-3.25,2.89-5.02,8.08-5v-.28c0-1.11-.31-3.11-3.05-3.11-1.25,0-2.55.39-3.5,1l-.55-1.61c1.11-.72,2.72-1.19,4.41-1.19,4.11,0,5.11,2.8,5.11,5.5v5.02c0,1.17.06,2.3.22,3.22h-2.22ZM277.65,306.84c-2.66-.06-5.69.42-5.69,3.03,0,1.58,1.05,2.33,2.3,2.33,1.75,0,2.86-1.11,3.25-2.25.08-.25.14-.53.14-.78v-2.33Z" fill="#033d03"/>
  <path d="M289.7,303.9c0-1.39-.03-2.53-.11-3.64h2.17l.14,2.22h.06c.67-1.28,2.22-2.53,4.44-2.53,1.86,0,4.75,1.11,4.75,5.72v8.02h-2.44v-7.74c0-2.17-.8-3.97-3.11-3.97-1.61,0-2.86,1.14-3.28,2.5-.11.31-.17.72-.17,1.14v8.08h-2.44v-9.8Z" fill="#033d03"/>
  <path d="M313.68,296.4v3.86h3.5v1.86h-3.5v7.24c0,1.67.47,2.61,1.83,2.61.64,0,1.11-.08,1.42-.17l.11,1.83c-.47.19-1.22.33-2.17.33-1.14,0-2.05-.36-2.64-1.03-.69-.72-.94-1.92-.94-3.5v-7.33h-2.08v-1.86h2.08v-3.22l2.39-.64Z" fill="#033d03"/>
  <path d="M333.11,313.7l-.19-1.69h-.08c-.75,1.05-2.19,2-4.11,2-2.72,0-4.11-1.92-4.11-3.86,0-3.25,2.89-5.02,8.08-5v-.28c0-1.11-.31-3.11-3.05-3.11-1.25,0-2.55.39-3.5,1l-.55-1.61c1.11-.72,2.72-1.19,4.41-1.19,4.11,0,5.11,2.8,5.11,5.5v5.02c0,1.17.06,2.3.22,3.22h-2.22ZM332.75,306.84c-2.66-.06-5.69.42-5.69,3.03,0,1.58,1.05,2.33,2.3,2.33,1.75,0,2.86-1.11,3.25-2.25.08-.25.14-.53.14-.78v-2.33Z" fill="#033d03"/>
  <path d="M344.8,293.99h2.44v19.71h-2.44v-19.71Z" fill="#033d03"/>
  <path d="M357.98,300.26l2.94,7.94c.31.89.64,1.94.86,2.75h.06c.25-.8.53-1.83.86-2.8l2.67-7.88h2.58l-3.66,9.58c-1.75,4.61-2.94,6.97-4.61,8.41-1.19,1.05-2.39,1.47-3,1.58l-.61-2.05c.61-.19,1.42-.58,2.14-1.19.67-.53,1.5-1.47,2.05-2.72.11-.25.19-.44.19-.58s-.06-.33-.17-.64l-4.97-12.38h2.66Z" fill="#033d03"/>
</svg>